<svg xmlns="http://www.w3.org/2000/svg" viewBox="0 0 256 256" width="256" height="256">
  <!-- Background -->
  <rect width="256" height="256" rx="50" fill="#1a1a1a"/>
  
  <!-- Gradient for ember effect -->
  <defs>
    <linearGradient id="emberGradient" x1="0%" y1="0%" x2="0%" y2="100%">
      <stop offset="0%" style="stop-color:#ff6b35;stop-opacity:1" />
      <stop offset="50%" style="stop-color:#f7931e;stop-opacity:1" />
      <stop offset="100%" style="stop-color:#ff4757;stop-opacity:1" />
    </linearGradient>
    
    <linearGradient id="emberGlow" x1="0%" y1="0%" x2="0%" y2="100%">
      <stop offset="0%" style="stop-color:#ffd93d;stop-opacity:0.8" />
      <stop offset="100%" style="stop-color:#ff6b35;stop-opacity:0.8" />
    </linearGradient>
  </defs>
  
  <!-- Tree structure with ember glow (scaled from 200x200 to 256x256) -->
  <!-- Root node (top) -->
  <circle cx="128" cy="64" r="18" fill="url(#emberGlow)"/>
  <circle cx="128" cy="64" r="13" fill="url(#emberGradient)"/>
  
  <!-- Main vertical line -->
  <rect x="124" y="64" width="8" height="51" fill="url(#emberGradient)" rx="4"/>
  
  <!-- Branch lines -->
  <rect x="77" y="111" width="51" height="8" fill="url(#emberGradient)" rx="4"/>
  <rect x="128" y="111" width="51" height="8" fill="url(#emberGradient)" rx="4"/>
  
  <!-- Second level nodes -->
  <circle cx="77" cy="115" r="15" fill="url(#emberGlow)"/>
  <circle cx="77" cy="115" r="10" fill="url(#emberGradient)"/>
  
  <circle cx="179" cy="115" r="15" fill="url(#emberGlow)"/>
  <circle cx="179" cy="115" r="10" fill="url(#emberGradient)"/>
  
  <!-- Connecting lines to third level -->
  <rect x="73" y="115" width="8" height="38" fill="url(#emberGradient)" rx="4"/>
  <rect x="175" y="115" width="8" height="38" fill="url(#emberGradient)" rx="4"/>
  
  <!-- Third level branch lines -->
  <rect x="51" y="150" width="26" height="8" fill="url(#emberGradient)" rx="4"/>
  <rect x="77" y="150" width="26" height="8" fill="url(#emberGradient)" rx="4"/>
  
  <rect x="154" y="150" width="26" height="8" fill="url(#emberGradient)" rx="4"/>
  <rect x="179" y="150" width="26" height="8" fill="url(#emberGradient)" rx="4"/>
  
  <!-- Leaf nodes -->
  <circle cx="51" cy="154" r="13" fill="url(#emberGlow)"/>
  <circle cx="51" cy="154" r="9" fill="url(#emberGradient)"/>
  
  <circle cx="102" cy="154" r="13" fill="url(#emberGlow)"/>
  <circle cx="102" cy="154" r="9" fill="url(#emberGradient)"/>
  
  <circle cx="154" cy="154" r="13" fill="url(#emberGlow)"/>
  <circle cx="154" cy="154" r="9" fill="url(#emberGradient)"/>
  
  <circle cx="205" cy="154" r="13" fill="url(#emberGlow)"/>
  <circle cx="205" cy="154" r="9" fill="url(#emberGradient)"/>
  
  <!-- Additional detail nodes -->
  <rect x="124" y="166" width="8" height="32" fill="url(#emberGradient)" rx="4"/>
  <rect x="102" y="195" width="51" height="8" fill="url(#emberGradient)" rx="4"/>
  
  <circle cx="102" cy="198" r="12" fill="url(#emberGlow)"/>
  <circle cx="102" cy="198" r="8" fill="url(#emberGradient)"/>
  
  <circle cx="154" cy="198" r="12" fill="url(#emberGlow)"/>
  <circle cx="154" cy="198" r="8" fill="url(#emberGradient)"/>
</svg>
